<svg version="1.1" xmlns="http://www.w3.org/2000/svg" width="20" height="20">
<path d="M0 0 C0.73202637 0.18256348 1.46405273 0.36512695 2.21826172 0.55322266 C34.6840353 8.76635809 66.95765985 25.76340699 92 48 C92.83273437 48.73605469 93.66546875 49.47210938 94.5234375 50.23046875 C96.19781017 51.72710032 97.86469267 53.23215997 99.5234375 54.74609375 C101.20252205 56.2742196 102.89580823 57.78685858 104.6015625 59.28515625 C109.84360062 63.90163393 114.5242908 68.64760549 119 74 C119.82113281 74.93328125 120.64226562 75.8665625 121.48828125 76.828125 C165.77739369 127.41468269 183.63678064 193.40022962 179.7890625 259.63085938 C176.01207889 306.928995 157.11236669 351.82709874 128 389 C127.22269531 390.00160156 126.44539063 391.00320313 125.64453125 392.03515625 C111.90788304 408.96027925 95.90455842 424.56478084 78 437 C77.37609375 437.4419873 76.7521875 437.88397461 76.109375 438.33935547 C34.93023425 467.41779809 -13.92936037 482.21139978 -64.1875 482.25 C-64.98135101 482.25067474 -65.77520203 482.25134949 -66.59310913 482.25204468 C-80.25143298 482.23369893 -93.53202821 481.41149495 -107 479 C-107.92425781 478.83902832 -108.84851563 478.67805664 -109.80078125 478.51220703 C-135.32225929 473.91887048 -159.0584461 464.9584837 -182 453 C-183.07193604 452.44530029 -183.07193604 452.44530029 -184.16552734 451.87939453 C-198.4888832 444.37144975 -211.77471953 434.55111786 -224 424 C-225.15242188 423.01386719 -225.15242188 423.01386719 -226.328125 422.0078125 C-239.13688585 410.76833692 -250.91369343 398.73831301 -261 385 C-261.84760437 383.8710548 -262.69526066 382.74214857 -263.54296875 381.61328125 C-285.69357928 351.7467606 -300.38505804 316.53116597 -307 280 C-307.24339111 278.68008057 -307.24339111 278.68008057 -307.49169922 277.33349609 C-318.37998203 215.27365506 -303.11475991 148.76834515 -267.0625 97.3125 C-262.30661684 90.6408981 -257.35541724 84.20516979 -252 78 C-251.34257812 77.23171875 -250.68515625 76.4634375 -250.0078125 75.671875 C-238.76833692 62.86311415 -226.73831301 51.08630657 -213 41 C-211.8710548 40.15239563 -210.74214857 39.30473934 -209.61328125 38.45703125 C-179.7467606 16.30642072 -144.53116597 1.61494196 -108 -5 C-106.68008057 -5.24339111 -106.68008057 -5.24339111 -105.33349609 -5.49169922 C-70.46058261 -11.61008654 -34.10303103 -8.76319245 0 0 Z M-61 0 C-61 24.75 -61 49.5 -61 75 C-51.1 76.32 -41.2 77.64 -31 79 C-23.82651676 80.78346268 -16.93578698 82.55992939 -10 85 C-9.25508301 85.26151855 -8.51016602 85.52303711 -7.74267578 85.79248047 C25.06596 97.64306711 49.61302706 120.38360404 70 148 C73.37639445 147.34795651 75.83307839 146.05648571 78.75390625 144.26171875 C79.68114502 143.69493408 80.60838379 143.12814941 81.5637207 142.54418945 C82.55331787 141.93148193 83.54291504 141.31877441 84.5625 140.6875 C85.58883545 140.05739014 86.6151709 139.42728027 87.67260742 138.77807617 C94.85117666 134.35985425 101.98843292 129.87754625 109.10302734 125.35717773 C117.33668241 120.13112574 125.66342388 115.05971406 134 110 C128.78444227 94.98137828 113.74215542 81.35169278 103 70 C101.68708984 68.60587891 101.68708984 68.60587891 100.34765625 67.18359375 C93.42334741 60.03559211 85.96333283 53.94200546 78 48 C77.43410156 47.57332031 76.86820313 47.14664063 76.28515625 46.70703125 C35.84810884 16.35589867 -10.95359357 2.50232032 -61 0 Z M-222 60 C-222.50772949 60.44456543 -223.01545898 60.88913086 -223.53857422 61.34716797 C-252.9768766 87.22980003 -274.42437858 120.36675545 -288 157 C-288.24733887 157.66209473 -288.49467773 158.32418945 -288.74951172 159.00634766 C-307.09659328 208.80931068 -305.82880025 264.05928018 -289 314 C-288.76700195 314.69351562 -288.53400391 315.38703125 -288.29394531 316.1015625 C-279.52711882 341.72196375 -266.10156246 365.06325671 -249 386 C-248.48937012 386.62632324 -247.97874023 387.25264648 -247.45263672 387.89794922 C-240.44381465 396.42523675 -232.92772122 404.32529116 -225 412 C-217.2791112 405.75757927 -210.95950825 398.47208077 -204.75 390.75 C-200.65736849 385.68429527 -196.28189042 380.95287846 -191.81982422 376.21655273 C-187.59379836 371.70575929 -183.65136157 367.04803428 -179.8046875 362.20703125 C-178.28461303 360.34806572 -176.73576324 358.65490471 -175 357 C-176.79672077 352.5898672 -180.00458607 349.79743552 -183.49609375 346.65234375 C-210.04647584 321.75738117 -224.42885546 280.97857141 -226.12402344 245.39672852 C-227.38621095 202.85243906 -214.50144248 160.71194893 -185.07421875 129.23046875 C-183.17519913 127.18839681 -181.40162345 125.08548418 -179.625 122.9375 C-175.28042712 117.97653463 -170.21560889 114.00686983 -165 110 C-163.98292969 109.2059375 -162.96585938 108.411875 -161.91796875 107.59375 C-133.90352587 86.31106647 -103.58255212 79.32281902 -69 75 C-69 50.25 -69 25.5 -69 0 C-125.44562354 0 -180.01737916 22.93956982 -222 60 Z M-99 87 C-99.78552246 87.19867676 -100.57104492 87.39735352 -101.38037109 87.60205078 C-129.33795701 94.87331071 -151.92928916 108.38963546 -173 128 C-173.67804688 128.62390625 -174.35609375 129.2478125 -175.0546875 129.890625 C-199.53976842 153.29403568 -216.84414315 190.41888395 -218.12646484 224.34594727 C-218.6558014 247.86050978 -218.6558014 247.86050978 -215 271 C-214.81727539 271.76038574 -214.63455078 272.52077148 -214.44628906 273.30419922 C-204.90950691 311.96026939 -180.26374769 345.84896186 -146.6875 367.125 C-132.7360111 375.40921742 -118.63769926 381.58604027 -103 386 C-102.195625 386.2273584 -101.39125 386.4547168 -100.5625 386.68896484 C-63.10590768 396.7076792 -21.23103066 389.19245637 12.0703125 370.25390625 C14.78033026 368.58234259 17.39681604 366.83317309 20 365 C21.44246094 363.98486328 21.44246094 363.98486328 22.9140625 362.94921875 C30.45152179 357.46654488 37.26214083 351.41326157 44 345 C44.64582031 344.40703125 45.29164063 343.8140625 45.95703125 343.203125 C70.03510392 320.4219977 86.38178388 283.5252748 88.19287109 250.48095703 C89.16775138 205.42967096 77.82719026 165.72819782 47 132 C46.53899902 131.4937207 46.07799805 130.98744141 45.60302734 130.46582031 C21.0207056 103.83995947 -15.46305897 85.73544142 -51.84033203 83.79516602 C-55.95634978 83.67324101 -60.07003563 83.66546162 -64.1875 83.6875 C-65.27724625 83.69073273 -65.27724625 83.69073273 -66.38900757 83.69403076 C-77.49498974 83.74682847 -88.20629006 84.21072692 -99 87 Z M138 117 C136.13264525 117.80207192 136.13264525 117.80207192 134.09765625 119.10546875 C133.29996826 119.58806152 132.50228027 120.0706543 131.68041992 120.56787109 C130.81650635 121.10234863 129.95259277 121.63682617 129.0625 122.1875 C128.16442627 122.73486816 127.26635254 123.28223633 126.34106445 123.84619141 C119.65128882 127.93871865 113.01747751 132.11951773 106.40136719 136.32983398 C96.36199107 142.70627918 86.17591952 148.84475609 76 155 C76.81455522 159.66281609 78.58588649 163.48282025 80.6875 167.6875 C99.3953141 206.49402813 101.06552501 251.42005765 87 292 C81.78715416 306.0267919 74.7041 319.83404205 66 332 C69.22975915 335.34593753 72.49844187 338.25600319 76.25 341 C77.30832031 341.78246094 78.36664063 342.56492187 79.45703125 343.37109375 C80.0288916 343.79374512 80.60075195 344.21639648 81.18994141 344.65185547 C84.46353527 347.09005149 87.69828687 349.57892651 90.9375 352.0625 C91.9884082 352.86554565 91.9884082 352.86554565 93.06054688 353.68481445 C97.24502628 356.88304511 101.41769286 360.09589419 105.58203125 363.3203125 C107.47130812 364.77610143 109.36063039 366.23183144 111.25 367.6875 C112.14323975 368.38302979 113.03647949 369.07855957 113.95678711 369.79516602 C115.22341187 370.76860962 115.22341187 370.76860962 116.515625 371.76171875 C117.26102539 372.33881592 118.00642578 372.91591309 118.77441406 373.51049805 C121.10365374 375.0693716 123.36860141 376.05446775 126 377 C162.37222061 326.48302693 179.19279974 263.7843268 169.51123047 201.87451172 C164.4381231 172.53753427 155.59477045 143.57676791 140 118 C139.01 117.505 139.01 117.505 138 117 Z M60 339 C58.90687719 340.15937268 57.85119779 341.35412531 56.8125 342.5625 C55.86117187 343.66078125 55.86117187 343.66078125 54.890625 344.78125 C53.74446233 346.12633346 52.60656954 347.47860613 51.484375 348.84375 C40.45124124 362.18050509 25.12748062 371.91770539 10 380 C9.07445312 380.52078125 8.14890625 381.0415625 7.1953125 381.578125 C-5.3130597 388.31067661 -19.30916896 392.49226025 -33.1875 395.3125 C-33.90873047 395.45961426 -34.62996094 395.60672852 -35.37304688 395.75830078 C-43.87252757 397.3477706 -52.36745967 398.04082885 -61 399 C-61 423.75 -61 448.5 -61 474 C-44.71265882 473.29986479 -44.71265882 473.29986479 -28.6875 471.3125 C-27.12974854 471.05303589 -27.12974854 471.05303589 -25.54052734 470.78833008 C14.07877705 463.8851028 51.87726934 447.66395608 83 422 C83.55993652 421.54157715 84.11987305 421.0831543 84.69677734 420.61083984 C104.84668386 404.46812919 104.84668386 404.46812919 120 384 C119.33097656 383.50113281 118.66195312 383.00226563 117.97265625 382.48828125 C109.67691441 376.28596151 101.44497589 370.00248153 93.22314453 363.70263672 C91.01308795 362.01002365 88.80172631 360.3191323 86.58984375 358.62890625 C85.86949951 358.078396 85.14915527 357.52788574 84.40698242 356.96069336 C82.98151522 355.87146539 81.55589938 354.78243191 80.13012695 353.69360352 C76.77113965 351.12663338 73.41796997 348.55277877 70.078125 345.9609375 C69.47194336 345.49131592 68.86576172 345.02169434 68.24121094 344.5378418 C66.60722157 343.27065234 64.97540836 342.00065824 63.34375 340.73046875 C61.35148014 338.90100395 61.35148014 338.90100395 60 339 Z M-169 362 C-169.73863281 362.87140625 -170.47726563 363.7428125 -171.23828125 364.640625 C-176.29262578 370.58172611 -181.37571629 376.47441525 -186.6875 382.1875 C-190.05597235 385.81270296 -193.27922763 389.5123332 -196.375 393.375 C-200.5391959 398.55761338 -205.00421569 403.4047952 -209.57177734 408.22998047 C-214.70550138 412.94788031 -214.70550138 412.94788031 -217 419 C-214.6640675 420.94458796 -212.32177431 422.76619739 -209.875 424.5625 C-208.78227783 425.37050049 -208.78227783 425.37050049 -207.66748047 426.19482422 C-166.2671031 456.52269362 -120.05253477 471.31302449 -69 474 C-69 449.25 -69 424.5 -69 399 C-76.92 398.01 -84.84 397.02 -93 396 C-118.28743599 390.85430082 -141.44347916 381.61262606 -162.14453125 366.06640625 C-164.4065553 364.42945588 -166.46090219 363.12507239 -169 362 Z " fill="#cc00ff" transform="translate(321,19)"/>
<path d="M0 0 C4.17542067 3.50109562 8.13048529 7.16578612 12 11 C12.81726563 11.804375 13.63453125 12.60875 14.4765625 13.4375 C32.70355927 32.47876123 38.48377145 57.39729116 38.21484375 82.95703125 C37.69050348 103.94692597 29.00985552 124.42815373 15 140 C14.57090332 140.47824219 14.14180664 140.95648438 13.69970703 141.44921875 C-1.84336225 158.52300329 -24.03308923 170.78749133 -47.42749023 172.14038086 C-74.69817094 173.10225464 -99.44145404 167.4922037 -120.125 148.6875 C-122.11220754 146.82004586 -124.06297935 144.91934958 -126 143 C-126.81726563 142.195625 -127.63453125 141.39125 -128.4765625 140.5625 C-145.6173003 122.65602478 -152.55782694 98.33702026 -152.41967773 74.05493164 C-151.7521932 46.75245314 -139.87411516 24.64685435 -120.6796875 5.7109375 C-88.16412614 -24.47375925 -35.31642246 -26.72171788 0 0 Z M-124.5 21.875 C-139.60453631 41.06184343 -146.15465738 64.51562815 -143.3125 88.6875 C-140.82989725 104.67685058 -134.56286913 119.69838699 -124 132 C-123.33226562 132.81210937 -122.66453125 133.62421875 -121.9765625 134.4609375 C-106.93936687 152.10385656 -85.86259813 161.71655925 -63 164 C-40.29085983 165.75158456 -18.17067391 157.72360761 -0.77734375 143.3984375 C18.19346894 127.10386975 28.31469239 104.84986533 30.22265625 80.11328125 C30.99090267 55.62960181 21.25467745 33.21489626 4.72412109 15.55761719 C-11.41118059 -0.87714432 -33.90840872 -9.59577885 -56.75 -10.3125 C-83.48929275 -9.71438424 -107.0375731 1.79320906 -124.5 21.875 Z " fill="#cc00ff" transform="translate(313,179)"/>
<path d="M0 0 C6.80607201 3.96293317 13.41352121 8.26033711 20.0234375 12.5390625 C23.72564465 14.93468228 27.44965808 17.28419803 31.2109375 19.5859375 C32.07001709 20.11493652 32.92909668 20.64393555 33.81420898 21.18896484 C35.42603688 22.17903578 37.04247724 23.16165285 38.66430664 24.13525391 C44.21611226 27.56866395 48.14251661 31.01940822 51.1171875 36.96875 C52.26343802 42.92925272 51.79522212 48.18789753 48.9921875 53.59375 C45.47122428 57.70154043 41.31734873 60.59460508 36.7421875 63.43359375 C35.3022644 64.3304187 35.3022644 64.3304187 33.83325195 65.24536133 C32.81320068 65.87595459 31.79314941 66.50654785 30.7421875 67.15625 C29.68797607 67.81069092 28.63376465 68.46513184 27.54760742 69.1394043 C25.36241098 70.49552449 23.17644947 71.85041261 20.98974609 73.20410156 C17.8769359 75.13515777 14.77135069 77.07727469 11.66796875 79.0234375 C9.79694815 80.19282538 7.92585773 81.36210156 6.0546875 82.53125 C5.18908203 83.07579834 4.32347656 83.62034668 3.43164062 84.18139648 C2.62275391 84.68485596 1.81386719 85.18831543 0.98046875 85.70703125 C0.27962158 86.14571533 -0.42122559 86.58439941 -1.14331055 87.03637695 C-6.54287377 90.05566857 -11.14027541 91.04461751 -17.2578125 90.21875 C-22.56165499 88.49126609 -26.23276831 85.98901199 -29.2578125 81.21875 C-31.15536093 77.27102505 -31.5190861 74.08341085 -31.54833984 69.71948242 C-31.56109955 68.42431198 -31.57385925 67.12914154 -31.58700562 65.79472351 C-31.59006376 64.38789012 -31.59229126 62.98105471 -31.59375 61.57421875 C-31.60018318 60.12079234 -31.60691193 58.66736722 -31.61392212 57.21394348 C-31.62587921 54.17018637 -31.62960464 51.1265426 -31.62841797 48.08276367 C-31.62821503 44.19911811 -31.65549675 40.31620642 -31.68996239 36.43273449 C-31.712298 33.43081889 -31.71625347 30.42907794 -31.71519852 27.42708778 C-31.71754525 25.99626452 -31.72631614 24.56543577 -31.74186325 23.13469505 C-31.82097652 15.10124221 -31.7614614 9.02289466 -27.2578125 2.21875 C-18.81695002 -6.00568011 -9.81063429 -5.29225056 0 0 Z M-20.5078125 8.03125 C-23.55080864 11.83499517 -23.38441596 16.1046392 -23.40307617 20.83178711 C-23.40945602 21.93320541 -23.41583588 23.03462372 -23.42240906 24.16941833 C-23.42352188 25.34972122 -23.4246347 26.53002411 -23.42578125 27.74609375 C-23.42910965 28.96776749 -23.43243805 30.18944122 -23.43586731 31.44813538 C-23.44092557 34.02946598 -23.44327598 36.61080311 -23.44311523 39.19213867 C-23.44530237 43.13796766 -23.4634719 47.08351731 -23.48242188 51.02929688 C-23.48535589 53.53906154 -23.48734063 56.04882754 -23.48828125 58.55859375 C-23.49546677 59.73687241 -23.50265228 60.91515106 -23.51005554 62.12913513 C-23.50697891 63.2337056 -23.50390228 64.33827606 -23.50073242 65.47631836 C-23.50215744 66.44274765 -23.50358246 67.40917694 -23.50505066 68.40489197 C-23.1279063 72.69723379 -22.11134518 76.12976003 -19.4453125 79.53125 C-16.84382874 81.5381089 -15.54949286 82.14219929 -12.2578125 82.21875 C-5.70370664 79.86202427 -0.05047005 76.12886871 5.8046875 72.40625 C6.84512207 71.74842529 7.88555664 71.09060059 8.95751953 70.4128418 C11.1282464 69.03970874 13.29782888 67.66476502 15.46630859 66.28808594 C18.67839174 64.25904907 21.90493137 62.2552817 25.13671875 60.2578125 C27.13034635 59.01584653 29.12384144 57.77366779 31.1171875 56.53125 C32.05570557 55.95592529 32.99422363 55.38060059 33.96118164 54.7878418 C34.82477295 54.24554932 35.68836426 53.70325684 36.578125 53.14453125 C37.33657715 52.67442627 38.0950293 52.20432129 38.87646484 51.7199707 C40.97872224 50.02842651 41.79064271 48.72611642 42.7421875 46.21875 C43.24585758 41.48425124 42.49220107 39.05965661 39.7421875 35.21875 C37.30710885 33.29372844 37.30710885 33.29372844 34.4296875 31.65234375 C33.36274658 31.00740967 32.29580566 30.36247559 31.1965332 29.69799805 C30.04519481 29.017229 28.89374392 28.33665018 27.7421875 27.65625 C25.97291742 26.59434376 24.20597508 25.5286326 22.43904114 24.46284485 C21.25221144 23.74748526 20.06453557 23.03352767 18.87602234 22.32096863 C12.76728421 18.65388403 6.76815948 14.8202475 0.79492188 10.93725586 C-9.64699092 3.92255048 -9.64699092 3.92255048 -20.5078125 8.03125 Z " fill="#cc00ff" transform="translate(248.2578125,212.78125)"/>
</svg>